<svg width="1766" height="3235" viewBox="0 0 1766 3235" fill="none" xmlns="http://www.w3.org/2000/svg">
<path d="M5 0.5V114.5C9 144.333 30.1 188.8 82.5 128C148 52 222.5 74.5 207 139.5C194.6 191.5 109.833 399.5 69 497C23 593.167 -13.8 735 207 533C483 280.5 236.5 406 214 406C191.5 406 231.5 336.5 312 272.5C376.4 221.3 582.5 194.833 677.5 188C754.333 182.5 906.8 174.8 902 188C896 204.5 1546.5 139 1463 324C1379.5 509 762 406 1095 577.5C1428 749 1697 933.5 1438 900.5C1179 867.5 370 359.5 516.5 630C633.7 846.4 971.667 1214.83 1126 1372C1188.5 1452.33 1205.2 1570.2 772 1399C230.5 1185 125 1224 226.5 1298C307.7 1357.2 935.333 1761.33 1239 1956C1341.5 2020.83 1500.6 2103.8 1317 1917C1087.5 1683.5 1338 1539 1554.5 1769C1771 1999 1837 2468.5 1656 2369C1475 2269.5 253.5 1613 226.5 1747.5C199.5 1882 491.5 2744.5 528.5 2324C565.5 1903.5 1075.5 2229 912 2369C748.5 2509 450.5 2657 596.5 2770C742.5 2883 1429.5 2949 1476.5 2838C1523.5 2727 1702.5 2644 1689 2852C1678.2 3018.4 1662.5 3175.67 1656 3233.5" stroke="white" stroke-width="10"/>
</svg>
